{"title":"Oculus (2013) 720p Blu-Ray x264 [Dual-Audio][English DD 5.1 + Hi","uid":10883839,"size":1045068128,"categoryP":"video","categoryS":"hd___movies","magnet":"?xt=urn:btih:358671cb0982f3b0d4cd6a662f15e169fbc06f42&amp;dn=Oculus+%282013%29+720p+Blu-Ray+x264+%5BDual-Audio%5D%5BEnglish+DD+5.1+%2B+Hi&amp;tr=udp%3A%2F%2Ftracker.openbittorrent.com%3A80&amp;tr=udp%3A%2F%2Fopen.demonii.com%3A1337&amp;tr=udp%3A%2F%2Ftracker.coppersurfer.tk%3A6969&amp;tr=udp%3A%2F%2Fexodus.desync.com%3A6969","seeders":28,"leechers":7,"uploader":"inovai","files":5,"time":1409063883,"description":"GENRE: Horror\n\nScreenshots:\n &lt;a href=&quot;\nhttp://img.primetimeshow.in/share.php?id=0EB1_53FC7E92&quot; rel=&quot;nofollow&quot; target=&quot;_NEW&quot;&gt;\nhttp://img.primetimeshow.in/share.php?id=0EB1_53FC7E92&lt;/a&gt;\n &lt;a href=&quot;\nhttp://img.primetimeshow.in/share.php?id=0993_53FC7E92&quot; rel=&quot;nofollow&quot; target=&quot;_NEW&quot;&gt;\nhttp://img.primetimeshow.in/share.php?id=0993_53FC7E92&lt;/a&gt;\n &lt;a href=&quot;\nhttp://img.primetimeshow.in/share.php?id=6D8D_53FC7E92&quot; rel=&quot;nofollow&quot; target=&quot;_NEW&quot;&gt;\nhttp://img.primetimeshow.in/share.php?id=6D8D_53FC7E92&lt;/a&gt;\n &lt;a href=&quot;\nhttp://img.primetimeshow.in/share.php?id=AEA0_53FC7E92&quot; rel=&quot;nofollow&quot; target=&quot;_NEW&quot;&gt;\nhttp://img.primetimeshow.in/share.php?id=AEA0_53FC7E92&lt;/a&gt;\n &lt;a href=&quot;\nhttp://img.primetimeshow.in/share.php?id=3908_53FC7E92&quot; rel=&quot;nofollow&quot; target=&quot;_NEW&quot;&gt;\nhttp://img.primetimeshow.in/share.php?id=3908_53FC7E92&lt;/a&gt;\n\nGeneral Info:\nUnique ID : 254005091323294014813388843551996131114 (0xBF1799E45A4613FDA9017D99A142372A)\nComplete name : Oculus (2013) 720p Blu-Ray x264 [Dual-Audio][English DD 5.1 + Hindi DD 5.1] - Mafiaking - TeamTNT.mkv\nFormat : Matroska\nFormat version : Version 4 / Version 2\nFile size : 981 MiB\nDuration : 1h 44mn\nOverall bit rate : 1 318 Kbps\nMovie name : Oculus (2013) 720p Blu-Ray x264 [Dual-Audio][English DD 5.1 + Hindi DD 5.1] - Mafiaking - TeamTNT\nEncoded date : UTC 2014-08-24 16:49:02\nWriting application : mkvmerge v7.0.0 ('Where We Going') 32bit built on Jun 9 2014 15:08:34\nWriting library : libebml v1.3.0 + libmatroska v1.4.1\n\n\nVideo\nID : 1\nFormat : AVC\nFormat/Info : Advanced Video Codec\nFormat profile : &lt;a class=&quot;__cf_email__&quot; href=&quot;/cdn-cgi/l/email-protection&quot; data-cfemail=&quot;aae2c3cdc2eae699849b&quot;&gt;[email&amp;#160;protected]&lt;/a&gt;&lt;script cf-hash='f9e31' type=&quot;text/javascript&quot;&gt;\n/* &lt;![CDATA[ */!function(){try{var t=&quot;currentScript&quot;in document?document.currentScript:function(){for(var t=document.getElementsByTagName(&quot;script&quot;),e=t.length;e--;)if(t[e].getAttribute(&quot;cf-hash&quot;))return t[e]}();if(t&amp;&amp;t.previousSibling){var e,r,n,i,c=t.previousSibling,a=c.getAttribute(&quot;data-cfemail&quot;);if(a){for(e=&quot;&quot;,r=parseInt(a.substr(0,2),16),n=2;a.length-n;n+=2)i=parseInt(a.substr(n,2),16)^r,e+=String.fromCharCode(i);e=document.createTextNode(e),c.parentNode.replaceChild(e,c)}}}catch(u){}}();/* ]]&gt; */&lt;/script&gt;\nFormat settings, CABAC : Yes\nFormat settings, ReFrames : 4 frames\nCodec ID : V_MPEG4/ISO/AVC\nDuration : 1h 44mn\nBit rate : 900 Kbps\nWidth : 1 280 pixels\nHeight : 536 pixels\nDisplay aspect ratio : 2.40:1\nFrame rate mode : Constant\nFrame rate : 23.976 fps\nColor space : YUV\nChroma subsampling : 4:2:0\nBit depth : 8 bits\nScan type : Progressive\nBits/(Pixel*Frame) : 0.055\nStream size : 652 MiB (66%)\nTitle : Mafiaking@TeamTNT\nLanguage : English\nDefault : Yes\nForced : No\n\n\nAudio #1\nID : 2\nFormat : AC-3\nFormat/Info : Audio Coding 3\nMode extension : CM (complete main)\nFormat settings, Endianness : Big\nCodec ID : A_AC3\nDuration : 1h 44mn\nBit rate mode : Constant\nBit rate : 224 Kbps\nChannel(s) : 6 channels\nChannel positions : Front: L C R, Side: L R, LFE\nSampling rate : 48.0 KHz\nBit depth : 16 bits\nCompression mode : Lossy\nStream size : 167 MiB (17%)\nTitle : Mafiaking@TeamTNT\nLanguage : Hindi\nDefault : Yes\nForced : No\n\n\nAudio #2\nID : 3\nFormat : AC-3\nFormat/Info : Audio Coding 3\nMode extension : CM (complete main)\nFormat settings, Endianness : Big\nCodec ID : A_AC3\nDuration : 1h 44mn\nBit rate mode : Constant\nBit rate : 192 Kbps\nChannel(s) : 6 channels\nChannel positions : Front: L C R, Side: L R, LFE\nSampling rate : 48.0 KHz\nBit depth : 16 bits\nCompression mode : Lossy\nStream size : 143 MiB (15%)\nTitle : Mafiaking@TeamTNT\nLanguage : English\nDefault : No\nForced : No\n\n\nSAMPLE WITH IN TORRENT\n\nThanks to Mafiaking &amp; TeamTNT!!\n\nSeed n ENjoy!!","torrent":{"xt":"urn:btih:358671cb0982f3b0d4cd6a662f15e169fbc06f42","amp;dn":"Oculus+%282013%29+720p+Blu-Ray+x264+%5BDual-Audio%5D%5BEnglish+DD+5.1+%2B+Hi","amp;tr":["udp%3A%2F%2Ftracker.openbittorrent.com%3A80","udp%3A%2F%2Fopen.demonii.com%3A1337","udp%3A%2F%2Ftracker.coppersurfer.tk%3A6969","udp%3A%2F%2Fexodus.desync.com%3A6969"],"infoHash":"358671cb0982f3b0d4cd6a662f15e169fbc06f42","infoHashBuffer":{"type":"Buffer","data":[53,134,113,203,9,130,243,176,212,205,106,102,47,21,225,105,251,192,111,66]},"announce":[],"urlList":[]}}